
<global>
amp_veltrack=0
ampeg_attack=0.01
ampeg_release=0.45
xf_cccurve=gain
xfin_hicc1=127
xfout_hicc1=127
xfout_locc1=127
</global>

<group>
group_label=PP
lpc_hicc1=42
lpc_locc1=0

<region>
hikey=A#1
hivel=127
lokey=A1
loop_end=182340
loop_mode=loop_continuous
loop_start=57397
loop_xfade=31235
lovel=1
lpc=7Bq/Q7MQb8TCBzJE+ahgw4FjUkPgDq/CgInqwO8iMsLVTkBBh2Wbwe8RXUHKkYpBQVgAwInXesGjsY5AIJsnQU+AGMFB1kRBS3WHP0QLEcARU7/Ba3SJQUviDED9Qg3A
lpc_rms=-34.29
pitch_keycenter=A#1
sample=Cimbasso_flatter_PP_A#2.opus
</region>

<region>
hikey=A#2
hivel=127
lokey=A2
loop_end=183781
loop_mode=loop_continuous
loop_start=57850
loop_xfade=31482
lovel=1
lpc=xUPNQzoGkMRrdJVEDIZPxHx8IUSUg4vDPKcnQmDPGcJfRx9BOgkowt/YekIRY9jBopVXwZLyhr6sio1BSLE9wL5oV0FQeInBIkGtQUd/lsHkDunAmVdWQZRUvMBkB/4/
lpc_rms=-29.62
pitch_keycenter=A#2
sample=Cimbasso_flatter_PP_A#3.opus
</region>

<region>
hikey=C4
hivel=127
lokey=A3
loop_end=198724
loop_mode=loop_continuous
loop_start=62554
loop_xfade=34042
lovel=1
lpc=908yQ/xvBcRXjCJE0pcOxFK+BkQEf8zDRn5GQxffN8I5MsLBKL/oQW7ajsA5LsfBPpO0QevYw8HJvDBCDXoNwrfxnUHwLOfB0axQQvytQsJhYKtBzPvvwNmYgT9VaO0/
lpc_rms=-29.23
pitch_keycenter=A#3
sample=Cimbasso_flatter_PP_A#4.opus
</region>

<region>
hikey=C2
hivel=127
lokey=B1
loop_end=180049
loop_mode=loop_continuous
loop_start=56676
loop_xfade=30843
lovel=1
lpc=JWuHQ1NiIsR7DfRDKHxJwyYRH0MhZYTCg7wJQn18KcJktKtBWwvYwcLQb0FtWrxAnkhrwKtLe8GabqA/afIzQbh8zb5+bok/pjhtQBgE078q7g/B2jxBP4sU50BwkzHA
lpc_rms=-37.51
pitch_keycenter=C2
sample=Cimbasso_flatter_PP_C3.opus
</region>

<region>
hikey=C3
hivel=127
lokey=B2
loop_end=183429
loop_mode=loop_continuous
loop_start=57740
loop_xfade=31422
lovel=1
lpc=sqCZQ2z4XsRUAnhE9Fw+xIvpH0SP66vDkY/CQiKPCcJ9PiXCBZPkQNF+SkLQHZ/B2phvQTAdscEItJLAnAePQLyzBEHzSgY/HMX5QMPcAsF5UWjBhRjDQWEul8Ex8dpA
lpc_rms=-30.24
pitch_keycenter=C3
sample=Cimbasso_flatter_PP_C4.opus
</region>

<region>
hikey=D2
hivel=127
lokey=C#2
loop_end=182181
loop_mode=loop_continuous
loop_start=57347
loop_xfade=31208
lovel=1
lpc=o7ulQyXqVcQGWC5EcfWFw0z9XUN/XgjDjIbiQbaU9MH3b95BChsiwoNMr0GISYpB8hgMwdeEpsE6uPM+J4NwQfanm0DgxgTBFQc1QcyhkD8GWpTBA13tQCFAVr4WNL4/
lpc_rms=-34.80
pitch_keycenter=D2
sample=Cimbasso_flatter_PP_D3.opus
</region>

<region>
hikey=D3
hivel=127
lokey=C#3
loop_end=184310
loop_mode=loop_continuous
loop_start=58017
loop_xfade=31573
lovel=1
lpc=WB/EQz9Ij8SNv5REKXgwxByXC0QajbLDAliOQuBQjkBnfpDBugmdwXg4KULlSJbBsu2MQQooZr23KPHBNSZgQRXm+EFqVhvCJmQmQfJ63UH8YQ/COb8fQUoXV8ALOJ1A
lpc_rms=-29.90
pitch_keycenter=D3
sample=Cimbasso_flatter_PP_D4.opus
</region>

<region>
hivel=127
key=E1
loop_end=182285
loop_mode=loop_continuous
loop_start=57379
loop_xfade=31226
lovel=1
lpc=ZRZkQ4e9EMSwlOhD4ik8w8h/JkMbLLbCIEBVQBHSGMEqVTJBx6zywX0yrUG7Y6hBlxBHwXpTk8GmdzpBGvXMQP41RcEGG0tAxXsUQRROQMAQCzjAakRxwAk8YkAIMyQ+
lpc_rms=-38.48
sample=Cimbasso_flatter_PP_E2.opus
</region>

<region>
hikey=E2
hivel=127
lokey=D#2
loop_end=180847
loop_mode=loop_continuous
loop_start=56927
loop_xfade=30980
lovel=1
lpc=4lt1Q8LRG8SixAZEHWSfwyqjgUOcDZDC6pdgQLpoLcLw2KRBoaUOwo4likHie6NBfnnmwCCQxsHszyRBOoCQQf+qqMAgjAbAFxByQChCy76wxbbAwbVwwOl3k0AIyMw+
lpc_rms=-36.78
pitch_keycenter=E2
sample=Cimbasso_flatter_PP_E3.opus
</region>

<region>
hikey=E3
hivel=127
lokey=D#3
loop_end=184101
loop_mode=loop_continuous
loop_start=57951
loop_xfade=31537
lovel=1
lpc=SlmCQweZP8Q2QExEcbn4w61LuUM0emzDEQNAQoTN/EB0NRNBi/3nwdq5UUFhblBApAEIQHX65cCeOx3A5iXKQSeUs8H3oejAL+nFQfCjPMDLlsLB2uxGQb4Ez0AhEIrA
lpc_rms=-32.11
pitch_keycenter=E3
sample=Cimbasso_flatter_PP_E4.opus
</region>

<region>
hikey=F#1
hivel=127
lokey=F1
loop_end=182728
loop_mode=loop_continuous
loop_start=57519
loop_xfade=31302
lovel=1
lpc=81ljQ/KSF8SXKQVElhNvwztPRENZUAzDb8hTQgi/HMKhcgFCZKbawcKesUGmmbzBg7+/QGdQnMGWJ7xBQ9KJQUIqzj9xUMDAKu4+wOb22MEomgdBYZOgQZERKMHYnLQ/
lpc_rms=-36.03
pitch_keycenter=F#1
sample=Cimbasso_flatter_PP_F#2.opus
</region>

<region>
hikey=F#2
hivel=127
lokey=F2
loop_end=182760
loop_mode=loop_continuous
loop_start=57529
loop_xfade=31307
lovel=1
lpc=8rHBQ5TYb8RmMzhEwKmYwz0md0OZ1V3C0GOovw+jjcIEsdVBbs+6wQzRT0FCb5NBCwCzwOiOHcKuY6ZBD/SKQXVGvsDpZ90/ctyrP/iW50A1i0bBe33cwJ7C+kAtLZU+
lpc_rms=-33.75
pitch_keycenter=F#2
sample=Cimbasso_flatter_PP_F#3.opus
</region>

<region>
hikey=F#3
hivel=127
lokey=F3
loop_end=181836
loop_mode=loop_continuous
loop_start=57238
loop_xfade=31149
lovel=1
lpc=gXzsQ6+cqsQEga1EWU1cxG78QURzhtDDJOSUQjElf8J8cnfCe6ZuQYYOu0JUfinBnBKlwAMi9MHqgsJATcYaQlP2E8KEfrzAiLbKQVQMhMDmeQfChGF7Qs8RaMK7Y6xB
lpc_rms=-28.31
pitch_keycenter=F#3
sample=Cimbasso_flatter_PP_F#4.opus
</region>

<region>
hikey=G#1
hivel=127
lokey=G1
loop_end=183328
loop_mode=loop_continuous
loop_start=57708
loop_xfade=31405
lovel=1
lpc=kwCLQ8IlMcQZMhFEg6eBwx2AV0NeDsHCw6GDQcniIcJhJ4BBOe6SwY21vUE55qY/LOR2PxlE08FLnL8//92CQTdZIsBPtIG/5DRtQRoqwj/W0ZnBj4xVQRP3ncFA20JB
lpc_rms=-36.39
pitch_keycenter=G#1
sample=Cimbasso_flatter_PP_G#2.opus
</region>

<region>
hikey=G#2
hivel=127
lokey=G2
loop_end=181037
loop_mode=loop_continuous
loop_start=56987
loop_xfade=31012
lovel=1
lpc=aOvNQ9Sxh8QW4HJEBM4IxPG200MMs/DC6mGFv+OyuML413dCH0NFwu5KbEGBlsJBKppdwSJT/sHLrpxBOe8NQh7OQsEA2+fAEf5cQLKdpEA6E0/BFOO7wCg5qkB/AUVA
lpc_rms=-32.19
pitch_keycenter=G#2
sample=Cimbasso_flatter_PP_G#3.opus
</region>

<region>
hikey=G#3
hivel=127
lokey=G3
loop_end=182971
loop_mode=loop_continuous
loop_start=57595
loop_xfade=31344
lovel=1
lpc=AeAzQ/mOBMQPwhhEtRrmw4EMvEP7/nrDCfvAQp81hMKmtd1CF13nwlR7okLW4XjC4DmMQj2lnsLef4FCmXdMwsvAREKnzRjCIgOAQaqrQUFLHf/BCw0NQgx4xMEhYvtA
lpc_rms=-29.99
pitch_keycenter=G#3
sample=Cimbasso_flatter_PP_G#4.opus
</region>
</group>

<group>
group_label=MF
lpc_hicc1=84
lpc_locc1=43

<region>
hikey=A#1
hivel=127
lokey=A1
loop_end=180872
loop_mode=loop_continuous
loop_start=56935
loop_xfade=30984
lovel=1
lpc=8+ZYQ/iDQ8Sc04tEI8tYxKoOEkQ/gAjEdZfaQ+kIb8NSzRVD47IBw6Ami0L4vEBBCnxIwuhEEUKNbobB7zM5QSLKhsDrb+w+w90XwSRGWEF2Z2DAFhyBwCZkBkBFo847
lpc_rms=-28.91
pitch_keycenter=A#1
sample=Cimbasso_flatter_MF_A#2.opus
</region>

<region>
hikey=A#2
hivel=127
lokey=A2
loop_end=178156
loop_mode=loop_continuous
loop_start=56080
loop_xfade=30519
lovel=1
lpc=WlBaQ61wKsSNcFpEcDdGxAZZP0Rs4SHELNfkQ9kxkcMVXdlChm/CwcGEj0D91hFCrhowwrZlAUKfTs/BRnSpQa7zscEV+bhAWvSBQYSTOcHA+9/A3AlVQXR5/cDo5gVA
lpc_rms=-28.33
pitch_keycenter=A#2
sample=Cimbasso_flatter_MF_A#3.opus
</region>

<region>
hikey=C4
hivel=127
lokey=A3
loop_end=199909
loop_mode=loop_continuous
loop_start=62927
loop_xfade=34245
lovel=1
lpc=eUNaQ2pRMsRJl2xEI6FWxKReXkTwhl7E4u4wRIId/sOk8ppD3f0pw7Pw7UIrtU3C1o0NwfgioEBruKZA6Ev+QDqFK8EJZyzAdAZkQat1N8HtgmHAQSOtQPmClEAgL4HA
lpc_rms=-24.31
pitch_keycenter=A#3
sample=Cimbasso_flatter_MF_A#4.opus
</region>

<region>
hikey=C2
hivel=127
lokey=B1
loop_end=180493
loop_mode=loop_continuous
loop_start=56815
loop_xfade=30919
lovel=1
lpc=q+ANQx0I+cNR8y9EvuwOxIRa3kN5st/Dw2a+Q/6eccO8eyJDhNkNw3NNvkJQ+lPBFToRwnnM40GwTiPB4CJCQaZ8eMFvHLBAByP9QPMMQ8HUufhAVzaFvxNMGMBpMaQ/
lpc_rms=-31.08
pitch_keycenter=C2
sample=Cimbasso_flatter_MF_C3.opus
</region>

<region>
hikey=C3
hivel=127
lokey=B2
loop_end=181396
loop_mode=loop_continuous
loop_start=57099
loop_xfade=31074
lovel=1
lpc=8eFAQ6z3FsQoiEJEukw9xNYUUkROdETEj7cYRCff8MNKWJhDNAIxwzPJ90K1wT3CCCceP7KgS0GzVNnB85YlQj0rUsI/3SJCi5WbwQbyoEED3+rBmvSvQXhN5cDtISc/
lpc_rms=-28.05
pitch_keycenter=C3
sample=Cimbasso_flatter_MF_C4.opus
</region>

<region>
hikey=D2
hivel=127
lokey=C#2
loop_end=179890
loop_mode=loop_continuous
loop_start=56626
loop_xfade=30816
lovel=1
lpc=vFx0Q99MSMR0VYJEpqNZxLnwTUQ1bULEdpkERH6+msOdsjRDS3PJwpjkOULGD55BJQ9dwmgmCkIWmETBwkdgQbAZYMGZOAzBrQsdQv7mGcKWhotBHqZFwZynLkGlSU/A
lpc_rms=-28.28
pitch_keycenter=D2
sample=Cimbasso_flatter_MF_D3.opus
</region>

<region>
hikey=D3
hivel=127
lokey=C#3
loop_end=179469
loop_mode=loop_continuous
loop_start=56493
loop_xfade=30744
lovel=1
lpc=dYedQzkLh8T9tLhERaSbxIk4ikQM3IDEiV43RKOn4MOjHm5DWuq+wnZGWEKQXwBBlquFwmTQQkIIZgjCJARSQlMhQcJiDyRBCgS9Qd/qYcFP7MLBDBwWQrEvncG4mHxA
lpc_rms=-24.92
pitch_keycenter=D3
sample=Cimbasso_flatter_MF_D4.opus
</region>

<region>
hivel=127
key=E1
loop_end=181924
loop_mode=loop_continuous
loop_start=57266
loop_xfade=31164
lovel=1
lpc=+gylQzoJYsQNZ01EczbIw6YxpEPp8D7DZ3J6QuP1Z8JMTpfAGJzLwcgcRELaVU5BbqMSwtgMgT8w6YRBcwo7QTUIosHVSoFBH+HWQEEjrcEscNDAf4VfQRyn87+K2Eo+
lpc_rms=-33.43
sample=Cimbasso_flatter_MF_E2.opus
</region>

<region>
hikey=E2
hivel=127
lokey=D#2
loop_end=177943
loop_mode=loop_continuous
loop_start=56013
loop_xfade=30482
lovel=1
lpc=MqCDQ7FeUMQHnn5ECSNLxEQQRUR15ivEpk3SQ6F+kMN1WTlD5mOqwtnWH0K8Rb5BT0k9wnMwaEEXbtjAq2u6QSs7xcFcV3i/8bkFQt4mCMJhjUpBaXT5wIw3HkEZLXPA
lpc_rms=-28.75
pitch_keycenter=E2
sample=Cimbasso_flatter_MF_E3.opus
</region>

<region>
hikey=E3
hivel=127
lokey=D#3
loop_end=178803
loop_mode=loop_continuous
loop_start=56283
loop_xfade=30630
lovel=1
lpc=5UIiQxGu9cP6gRFEEEjywyxW9kMmmtTDQTaMQ2swPsOEb8xCmNRlwuyWCkLdWSc/GG0XwQ2JBUHnxQDAfrJkQesQM8Js2BNCdQznwC92jkAEyqnB5iTJQdd/T8GpKjVA
lpc_rms=-30.09
pitch_keycenter=E3
sample=Cimbasso_flatter_MF_E4.opus
</region>

<region>
hikey=F#1
hivel=127
lokey=F1
loop_end=180965
loop_mode=loop_continuous
loop_start=56964
loop_xfade=31000
lovel=1
lpc=LUyPQ1FsTMQ/wjZEXLxcwzwWI0NQjzXDAQAuQgTCGsKcX7JBBuXLvyFD4EEFQCTAmT9bwOPugsENLA9Bg/YIwLcNDr/v2oNAXOOdwJuHrkD2/cPAqvBUQbpegcG/5s5A
lpc_rms=-35.36
pitch_keycenter=F#1
sample=Cimbasso_flatter_MF_F#2.opus
</region>

<region>
hikey=F#2
hivel=127
lokey=F2
loop_end=178588
loop_mode=loop_continuous
loop_start=56216
loop_xfade=30593
lovel=1
lpc=DAyMQwWdXcRh9YBEh5YnxCe9CURtUe/DkploQ2e2/sK+BZtCp+KPwWwk7kEJ6OZAdMVYwhLNu0F/nNDA1C+lQZ9OO8HDyYTBGWYVQphU3MFy2ZC/y55QQWDA08DvKYE/
lpc_rms=-29.78
pitch_keycenter=F#2
sample=Cimbasso_flatter_MF_F#3.opus
</region>

<region>
hikey=F#3
hivel=127
lokey=F3
loop_end=179178
loop_mode=loop_continuous
loop_start=56401
loop_xfade=30694
lovel=1
lpc=Gd9UQ4R0KMT+ukxEcTgdxGCgE0RDfAfEwQe5Q57be8NCLgNDuThmwnjIaEIQxWPBYXzPwcOMh0ExyD/ByHkDQsmVZ8Lx9SlCcuAVwUcnR0G6mAvCunUiQmH0xMGgSsZA
lpc_rms=-25.88
pitch_keycenter=F#3
sample=Cimbasso_flatter_MF_F#4.opus
</region>

<region>
hikey=G#1
hivel=127
lokey=G1
loop_end=176236
loop_mode=loop_continuous
loop_start=55475
loop_xfade=30190
lovel=1
lpc=XsUUQ/qCBsSly0VE4RUfxB0RwkPeQ5HDw55bQ4lM3MKDyiZCUJIAwicDyUFxGMtAApf6wSkErUFEJkY/lIPmwAIRWUAFIY/AGZ0VQQUe0cBcDaO/OBAhQLRsFT//wGm/
lpc_rms=-32.65
pitch_keycenter=G#1
sample=Cimbasso_flatter_MF_G#2.opus
</region>

<region>
hikey=G#2
hivel=127
lokey=G2
loop_end=179140
loop_mode=loop_continuous
loop_start=56389
loop_xfade=30687
lovel=1
lpc=KxirQwebhsQF1J5El0VkxMlRS0TOGinEuiq5Q5YNacM8tMNC8ou0QLuuRcF7MI5CbhWPwkkfmr4o5+s/bL+7QU2PKcFaCAHC7YqYQtOnYMIm6snAyoicQTEvZT/pmHzA
lpc_rms=-27.56
pitch_keycenter=G#2
sample=Cimbasso_flatter_MF_G#3.opus
</region>

<region>
hikey=G#3
hivel=127
lokey=G3
loop_end=179655
loop_mode=loop_continuous
loop_start=56552
loop_xfade=30775
lovel=1
lpc=ZvKBQwYYScQ3eWlEjgYrxJUUJUR/FRPEeey2Qyl4gcO2jfNCypUmwfE4qUF6xCpBxi5DwnnN5kGQ0JTBG/8AQkTsLcLMC8ZBDD56QI6rk0BBnOrBq6/3QSAgfsFd525A
lpc_rms=-24.03
pitch_keycenter=G#3
sample=Cimbasso_flatter_MF_G#4.opus
</region>
</group>

<group>
group_label=FF
lpc_hicc1=127
lpc_locc1=85

<region>
hikey=A#1
hivel=127
lokey=A1
loop_end=162077
loop_mode=loop_continuous
loop_start=51018
loop_xfade=27764
lovel=1
lpc=Keb2QS+azsJT0ilD2DpMw3tkVUMvgkzDJMQ4Q4kMIMPw5QVDQn7bwpWUskKlGJHCRSlsQiQqPsL7fhJCMdLcwWxrrEEXQozBJZJeQbfRGsFvV7xA8PxFwGNXsD+0TtK+
lpc_rms=-26.00
pitch_keycenter=A#1
sample=Cimbasso_flatter_FF_A#2.opus
</region>

<region>
hikey=A#2
hivel=127
lokey=A2
loop_end=182649
loop_mode=loop_continuous
loop_start=57494
loop_xfade=31288
lovel=1
lpc=822PQjl7f8NQCNFDZOfmw+eQ1kPEALrDGtSdQ1ZPh8NHx2lDAZhIw+ODKUOTTQ3D6m7uQoudysJsY6NCmwZuwjPUIUI4ZwDC4TgDQlZc9MHBqqxBqyI/wSggj0DEsB+/
lpc_rms=-20.57
pitch_keycenter=A#2
sample=Cimbasso_flatter_FF_A#3.opus
</region>

<region>
hikey=C4
hivel=127
lokey=A3
loop_end=203149
loop_mode=loop_continuous
loop_start=63947
loop_xfade=34800
lovel=1
lpc=4MxiQqbwLMOxdVhDSncsw5VFC0PsjPfCtDfOQoxTo8Ig5XlCTRlNwggcLUJON+/ByFSoQQBwrsFQEK1BmoiLwab5g0EG9qjBfADBQcr0qMGtL2tBpybawHXPED9HQEk/
lpc_rms=-24.46
pitch_keycenter=A#3
sample=Cimbasso_flatter_FF_A#4.opus
</region>

<region>
hikey=C2
hivel=127
lokey=B1
loop_end=157141
loop_mode=loop_continuous
loop_start=49464
loop_xfade=26919
lovel=1
lpc=tUBGQXoNBMJ/HixC1PIwwsiqKUIQ6hjCDaMFQnb04sH7/rtBfzeZwauTdEHfl0TBQWYgQdNI+cBbMK5Aggh0wAfYS0AEDU3AW4VUQMaROMDQBBhA2qnlvy3/hD+pF2y+
lpc_rms=-26.12
pitch_keycenter=C2
sample=Cimbasso_flatter_FF_C3.opus
</region>

<region>
hikey=C3
hivel=127
lokey=B2
loop_end=182157
loop_mode=loop_continuous
loop_start=57339
loop_xfade=31204
lovel=1
lpc=6w2MQtYIfcPaRcdD4f29wweFi0MxUlDDOTg2QwsiK8M9Lx9DKEMSw/lSAkMwG9rCISmzQkZ7mcJtgoFCCqY7whzI4UH6MpXBSfyNQcG0g8HaQzNBRjq9wD1HM0BGiFK/
lpc_rms=-22.81
pitch_keycenter=C3
sample=Cimbasso_flatter_FF_C4.opus
</region>

<region>
hikey=D2
hivel=127
lokey=C#2
loop_end=162524
loop_mode=loop_continuous
loop_start=51159
loop_xfade=27841
lovel=1
lpc=YurlQDH3acEjjlJBMkQrwTM/F0EGzvXAwlTIQENZm8C1nmxAsTctwCzW0D8b42q/2vgLP/N+Zr63Clm+IFqIPmzyv70032G+eW/sPnQ+S74bWQq+MhK7PnwRar6PCtE8
lpc_rms=-23.67
pitch_keycenter=D2
sample=Cimbasso_flatter_FF_D3.opus
</region>

<region>
hikey=D3
hivel=127
lokey=C#3
loop_end=183392
loop_mode=loop_continuous
loop_start=57728
loop_xfade=31416
lovel=1
lpc=3uC9QgCXtMMRNhpEuM0lxGlIC0QD2OHDvAzNQ+cyysNQGMFDaFCpwwfUiEOLqVLDYoUjQ/AkAcNHYr1CQRJkwnMX70Hi57vBCebQQXRIqcEJTM9AgxDRQN7yBcF/aEZA
lpc_rms=-21.40
pitch_keycenter=D3
sample=Cimbasso_flatter_FF_D4.opus
</region>

<region>
hivel=127
key=E1
loop_end=147909
loop_mode=loop_continuous
loop_start=46559
loop_xfade=25337
lovel=1
lpc=4LqzQoVUlsMraMlDJ+SVw/WFSkOjPknDCfxDQ2jHGcPldPBC8GfWwrohr0J3MUrCENiaQZyaHcGNj3lAWwQYQV96kcGSO4JBq4gKwS6UWEDmB5HAPXvzQHD7usABmNE/
lpc_rms=-29.93
sample=Cimbasso_flatter_FF_E2.opus
</region>

<region>
hikey=E2
hivel=127
lokey=D#2
loop_end=171992
loop_mode=loop_continuous
loop_start=54139
loop_xfade=29463
lovel=1
lpc=HR6zQQE2kMLh+uBC+lz+wrUW/EIbxujC16/NQkB8scK+lpdCzEuBwnEGWkIYzDPCpVcSQmMP7cEQE7pBjMOFwev/MUGhOO7AARunQMI5a8Dv1RxAdOeov90y4T4nEBG7
lpc_rms=-23.90
pitch_keycenter=E2
sample=Cimbasso_flatter_FF_E3.opus
</region>

<region>
hikey=E3
hivel=127
lokey=D#3
loop_end=185132
loop_mode=loop_continuous
loop_start=58276
loop_xfade=31714
lovel=1
lpc=YVJWQtGdPcOdX5ZDtvmXw09eekPdzVHDx2FFQynGRMO4Zj5DbBAsw5LyEUM8fO3CcJS/QjwbmsLrrGNCQYEHwlqje0FKABDBR3oeQeHnFcFEkYJAjMYSQJ4ekcDKEghA
lpc_rms=-22.94
pitch_keycenter=E3
sample=Cimbasso_flatter_FF_E4.opus
</region>

<region>
hikey=F#1
hivel=127
lokey=F1
loop_end=145010
loop_mode=loop_continuous
loop_start=45646
loop_xfade=24841
lovel=1
lpc=fm2XQkizhcPgt8pD5IK0w43ZY0NBj/vC1LCcQmiHasK4wixCB2DkwXkvgEFWMgbAVnsowc7naEG47jrB0lgQQf4BwcBAKmO/p1rNQM6XkMB6mSS+pJTgP2URdr+wk14+
lpc_rms=-32.03
pitch_keycenter=F#1
sample=Cimbasso_flatter_FF_F#2.opus
</region>

<region>
hikey=F#2
hivel=127
lokey=F2
loop_end=176886
loop_mode=loop_continuous
loop_start=55680
loop_xfade=30301
lovel=1
lpc=g9RMQcml7sGBmwBCsaHuwfID30HIsMTBA3quQYh7lMFYhnRBy9ZJwc6JIUGy6AHBC7LlQNT3w8AZ6Y5AiPtNwEHWOUASmSrAKTjcP15aOb9lggU+LALdPtzXy77yIF09
lpc_rms=-24.07
pitch_keycenter=F#2
sample=Cimbasso_flatter_FF_F#3.opus
</region>

<region>
hikey=F#3
hivel=127
lokey=F3
loop_end=182978
loop_mode=loop_continuous
loop_start=57598
loop_xfade=31345
lovel=1
lpc=/go6QjEWIsPsboJDKniMw1k1e0NMT1TD76s1Qx0yIsMvUhVDoxwJw5q/8EJU2cLCgdeUQnpRYcJYUCZCxCLcwUJbhkFTwk7BSqNYQfAVUMEQFBpBfO61wG7oKUCRvyy/
lpc_rms=-20.81
pitch_keycenter=F#3
sample=Cimbasso_flatter_FF_F#4.opus
</region>

<region>
hikey=G#1
hivel=127
lokey=G1
loop_end=161391
loop_mode=loop_continuous
loop_start=50802
loop_xfade=27647
lovel=1
lpc=o3xSQnCyPMNOJ5tDVHemwy2UjEM8S0/D2UYNQxw9t8LPYWpCoJMkwkBH/EFtaq7Ba384QepBSMD0CVnAdCfpQB6/88Dw1qJAblXrv/tgbD82NQ7ASSZPQKGKCsB4fQI/
lpc_rms=-31.02
pitch_keycenter=G#1
sample=Cimbasso_flatter_FF_G#2.opus
</region>

<region>
hikey=G#2
hivel=127
lokey=G2
loop_end=170996
loop_mode=loop_continuous
loop_start=53826
loop_xfade=29292
lovel=1
lpc=i73QQf2KncJWU+JCzajzwnvP7kIwXNvCxI7EQm80rsI/oJdCmbyCwnRAXULIJzbCAhISQpZU58FEGr5BzdOewUBzhUHRxmfBNhZLQSOYK8FJWvVALA6OwEucAEAZXPS+
lpc_rms=-22.97
pitch_keycenter=G#2
sample=Cimbasso_flatter_FF_G#3.opus
</region>

<region>
hikey=G#3
hivel=127
lokey=G3
loop_end=182427
loop_mode=loop_continuous
loop_start=57424
loop_xfade=31250
lovel=1
lpc=go7KQsoIoMOdi8hDzySXwzcdeUMv/3XD1ehMQ2HdJMMBzwpDDxnTwrzxlEJf+jPCT2CRQUrRBsFlxxdBAzWFwHJCA8CI8NzAefu3QeB3ysGS1YpBwZY0wdQdy0DYZ9u/
lpc_rms=-21.15
pitch_keycenter=G#3
sample=Cimbasso_flatter_FF_G#4.opus
</region>
</group>